<mxfile host="Electron" modified="2024-04-28T11:41:18.552Z" agent="Mozilla/5.0 (X11; Linux x86_64) AppleWebKit/537.36 (KHTML, like Gecko) draw.io/24.2.5 Chrome/120.0.6099.109 Electron/28.1.0 Safari/537.36" etag="Z1DNjQ7N2ZqUbfh2mLlZ" version="24.2.5" type="device">
  <diagram name="Page-1" id="6w8ZLbdb4hR2E5ebH7og">
    <mxGraphModel dx="1434" dy="833" grid="1" gridSize="10" guides="1" tooltips="1" connect="1" arrows="1" fold="1" page="1" pageScale="1" pageWidth="850" pageHeight="1100" math="0" shadow="0">
      <root>
        <mxCell id="0" />
        <mxCell id="1" parent="0" />
        <mxCell id="Umvj-HI0Un5_X_Ucja60-1" value="Editor" style="rounded=1;whiteSpace=wrap;html=1;" vertex="1" parent="1">
          <mxGeometry x="60" y="110" width="300" height="360" as="geometry" />
        </mxCell>
        <mxCell id="Umvj-HI0Un5_X_Ucja60-2" value="Preview/debug&lt;div&gt;&lt;br&gt;&lt;/div&gt;" style="rounded=1;whiteSpace=wrap;html=1;" vertex="1" parent="1">
          <mxGeometry x="360" y="110" width="420" height="360" as="geometry" />
        </mxCell>
        <mxCell id="Umvj-HI0Un5_X_Ucja60-3" value="Menu: Browser, console, network, None" style="rounded=1;whiteSpace=wrap;html=1;" vertex="1" parent="1">
          <mxGeometry x="360" y="100" width="420" height="30" as="geometry" />
        </mxCell>
        <mxCell id="Umvj-HI0Un5_X_Ucja60-4" value="" style="endArrow=none;html=1;rounded=0;exitX=-0.01;exitY=0.836;exitDx=0;exitDy=0;exitPerimeter=0;entryX=1.017;entryY=0.844;entryDx=0;entryDy=0;entryPerimeter=0;" edge="1" parent="1" source="Umvj-HI0Un5_X_Ucja60-1" target="Umvj-HI0Un5_X_Ucja60-1">
          <mxGeometry width="50" height="50" relative="1" as="geometry">
            <mxPoint x="170" y="460" as="sourcePoint" />
            <mxPoint x="220" y="410" as="targetPoint" />
          </mxGeometry>
        </mxCell>
        <mxCell id="Umvj-HI0Un5_X_Ucja60-5" value="Split editor (default CSS, linked to current editor selection)" style="rounded=0;whiteSpace=wrap;html=1;" vertex="1" parent="1">
          <mxGeometry x="60" y="410" width="300" height="60" as="geometry" />
        </mxCell>
        <mxCell id="Umvj-HI0Un5_X_Ucja60-6" value="Open files tabs" style="rounded=0;whiteSpace=wrap;html=1;" vertex="1" parent="1">
          <mxGeometry x="60" y="100" width="300" height="30" as="geometry" />
        </mxCell>
        <mxCell id="Umvj-HI0Un5_X_Ucja60-7" value="Standard file/edit/etc menu" style="rounded=0;whiteSpace=wrap;html=1;" vertex="1" parent="1">
          <mxGeometry x="60" y="80" width="720" height="20" as="geometry" />
        </mxCell>
        <mxCell id="Umvj-HI0Un5_X_Ucja60-8" value="Mobile, 720p, 1080p" style="rounded=0;whiteSpace=wrap;html=1;" vertex="1" parent="1">
          <mxGeometry x="360" y="440" width="420" height="30" as="geometry" />
        </mxCell>
        <mxCell id="Umvj-HI0Un5_X_Ucja60-9" value="" style="rounded=0;whiteSpace=wrap;html=1;" vertex="1" parent="1">
          <mxGeometry x="60" y="130" width="20" height="340" as="geometry" />
        </mxCell>
        <mxCell id="Umvj-HI0Un5_X_Ucja60-10" value="Sliding menu" style="text;strokeColor=none;align=center;fillColor=none;html=1;verticalAlign=middle;whiteSpace=wrap;rounded=0;" vertex="1" parent="1">
          <mxGeometry x="10" y="260" width="60" height="30" as="geometry" />
        </mxCell>
        <mxCell id="Umvj-HI0Un5_X_Ucja60-11" value="Click to edit" style="ellipse;whiteSpace=wrap;html=1;" vertex="1" parent="1">
          <mxGeometry x="730" y="400" width="50" height="40" as="geometry" />
        </mxCell>
        <mxCell id="Umvj-HI0Un5_X_Ucja60-13" value="Popout menu, remove, edit, edit colors,&amp;nbsp;" style="rounded=0;whiteSpace=wrap;html=1;" vertex="1" parent="1">
          <mxGeometry x="660" y="490" width="120" height="60" as="geometry" />
        </mxCell>
        <mxCell id="Umvj-HI0Un5_X_Ucja60-14" value="" style="endArrow=classic;html=1;rounded=0;" edge="1" parent="1" source="Umvj-HI0Un5_X_Ucja60-13" target="Umvj-HI0Un5_X_Ucja60-11">
          <mxGeometry width="50" height="50" relative="1" as="geometry">
            <mxPoint x="720" y="480" as="sourcePoint" />
            <mxPoint x="770" y="430" as="targetPoint" />
          </mxGeometry>
        </mxCell>
        <mxCell id="Umvj-HI0Un5_X_Ucja60-15" value="Ai refactor, ai bug fix, insert AI templates (metadata, CORS, etc.)" style="rounded=0;whiteSpace=wrap;html=1;" vertex="1" parent="1">
          <mxGeometry x="40" y="480" width="120" height="60" as="geometry" />
        </mxCell>
        <mxCell id="Umvj-HI0Un5_X_Ucja60-16" value="" style="endArrow=classic;html=1;rounded=0;" edge="1" parent="1" source="Umvj-HI0Un5_X_Ucja60-15" target="Umvj-HI0Un5_X_Ucja60-10">
          <mxGeometry width="50" height="50" relative="1" as="geometry">
            <mxPoint x="30" y="420" as="sourcePoint" />
            <mxPoint x="80" y="370" as="targetPoint" />
          </mxGeometry>
        </mxCell>
        <mxCell id="Umvj-HI0Un5_X_Ucja60-17" value="Indentation&lt;div&gt;&lt;br&gt;&lt;/div&gt;" style="rounded=0;whiteSpace=wrap;html=1;" vertex="1" parent="1">
          <mxGeometry x="40" y="560" width="120" height="60" as="geometry" />
        </mxCell>
        <mxCell id="Umvj-HI0Un5_X_Ucja60-18" value="" style="endArrow=classic;html=1;rounded=0;" edge="1" parent="1" source="Umvj-HI0Un5_X_Ucja60-17" target="Umvj-HI0Un5_X_Ucja60-15">
          <mxGeometry width="50" height="50" relative="1" as="geometry">
            <mxPoint x="70" y="570" as="sourcePoint" />
            <mxPoint x="120" y="520" as="targetPoint" />
          </mxGeometry>
        </mxCell>
        <mxCell id="Umvj-HI0Un5_X_Ucja60-19" value="Object summary" style="rounded=0;whiteSpace=wrap;html=1;" vertex="1" parent="1">
          <mxGeometry x="180" y="480" width="120" height="60" as="geometry" />
        </mxCell>
        <mxCell id="Umvj-HI0Un5_X_Ucja60-20" value="JS sandbox" style="rounded=0;whiteSpace=wrap;html=1;" vertex="1" parent="1">
          <mxGeometry x="180" y="560" width="120" height="60" as="geometry" />
        </mxCell>
        <mxCell id="Umvj-HI0Un5_X_Ucja60-21" value="Find and replace, rename symbol" style="rounded=0;whiteSpace=wrap;html=1;" vertex="1" parent="1">
          <mxGeometry x="320" y="480" width="120" height="60" as="geometry" />
        </mxCell>
        <mxCell id="Umvj-HI0Un5_X_Ucja60-22" value="Imports, images, links" style="rounded=0;whiteSpace=wrap;html=1;" vertex="1" parent="1">
          <mxGeometry x="320" y="560" width="120" height="60" as="geometry" />
        </mxCell>
        <mxCell id="Umvj-HI0Un5_X_Ucja60-23" value="GIT" style="rounded=0;whiteSpace=wrap;html=1;" vertex="1" parent="1">
          <mxGeometry x="40" y="640" width="120" height="60" as="geometry" />
        </mxCell>
        <mxCell id="Umvj-HI0Un5_X_Ucja60-25" value="" style="endArrow=classic;html=1;rounded=0;" edge="1" parent="1" source="Umvj-HI0Un5_X_Ucja60-23" target="Umvj-HI0Un5_X_Ucja60-17">
          <mxGeometry width="50" height="50" relative="1" as="geometry">
            <mxPoint x="90" y="700" as="sourcePoint" />
            <mxPoint x="140" y="650" as="targetPoint" />
          </mxGeometry>
        </mxCell>
        <mxCell id="Umvj-HI0Un5_X_Ucja60-26" value="" style="endArrow=classic;html=1;rounded=0;" edge="1" parent="1" source="Umvj-HI0Un5_X_Ucja60-20" target="Umvj-HI0Un5_X_Ucja60-19">
          <mxGeometry width="50" height="50" relative="1" as="geometry">
            <mxPoint x="240" y="539.2893218813452" as="sourcePoint" />
            <mxPoint x="240" y="520" as="targetPoint" />
          </mxGeometry>
        </mxCell>
        <mxCell id="Umvj-HI0Un5_X_Ucja60-27" value="" style="endArrow=classic;html=1;rounded=0;" edge="1" parent="1" source="Umvj-HI0Un5_X_Ucja60-19" target="Umvj-HI0Un5_X_Ucja60-15">
          <mxGeometry width="50" height="50" relative="1" as="geometry">
            <mxPoint x="109.28932188134524" y="560" as="sourcePoint" />
            <mxPoint x="109.28932188134524" y="510" as="targetPoint" />
          </mxGeometry>
        </mxCell>
        <mxCell id="Umvj-HI0Un5_X_Ucja60-29" value="" style="endArrow=classic;html=1;rounded=0;" edge="1" parent="1" source="Umvj-HI0Un5_X_Ucja60-21" target="Umvj-HI0Un5_X_Ucja60-19">
          <mxGeometry width="50" height="50" relative="1" as="geometry">
            <mxPoint x="249.28932188134524" y="560" as="sourcePoint" />
            <mxPoint x="249.28932188134524" y="510" as="targetPoint" />
          </mxGeometry>
        </mxCell>
        <mxCell id="Umvj-HI0Un5_X_Ucja60-30" value="" style="endArrow=classic;html=1;rounded=0;" edge="1" parent="1" source="Umvj-HI0Un5_X_Ucja60-22" target="Umvj-HI0Un5_X_Ucja60-21">
          <mxGeometry width="50" height="50" relative="1" as="geometry">
            <mxPoint x="380" y="539.2893218813452" as="sourcePoint" />
            <mxPoint x="380" y="530" as="targetPoint" />
          </mxGeometry>
        </mxCell>
      </root>
    </mxGraphModel>
  </diagram>
</mxfile>
